<?xml version="1.0" encoding="UTF-8" standalone="no"?>
<!DOCTYPE svg PUBLIC "-//W3C//DTD SVG 1.1//EN"
        "http://www.w3.org/Graphics/SVG/1.1/DTD/svg11.dtd">
<!-- Generated by graphviz version 2.40.1 (20161225.0304)
 -->
<!-- Title: %0 Pages: 1 -->
<svg width="580pt" height="548pt"
     viewBox="0.00 0.00 580.14 548.00" xmlns="http://www.w3.org/2000/svg">
    <g id="graph0" class="graph" transform="scale(1 1) rotate(0) translate(4 544)">
        <title>%0</title>
        <polygon fill="#ffffff" stroke="transparent" points="-4,4 -4,-544 576.142,-544 576.142,4 -4,4"/>
        <!-- n13 -->
        <g id="node1" class="node">
            <title>n13</title>
            <polygon fill="none" stroke="#000000"
                     points="90.1341,-396 -.0447,-396 -.0447,-360 90.1341,-360 90.1341,-396"/>
            <text text-anchor="middle" x="45.0447" y="-373.8" font-family="Times,serif" font-size="14.00"
                  fill="#000000">&lt;source&#45;tag&gt;
            </text>
        </g>
        <!-- n14 -->
        <g id="node4" class="node">
            <title>n14</title>
            <polygon fill="none" stroke="#000000"
                     points="116.0447,-318 74.0447,-318 74.0447,-294 116.0447,-294 128.0447,-306 116.0447,-318"/>
            <text text-anchor="middle" x="101.0447" y="-301.8" font-family="Times,serif" font-size="14.00"
                  fill="#000000">to
            </text>
        </g>
        <!-- n13&#45;&gt;n14 -->
        <g id="edge18" class="edge">
            <title>n13&#45;&gt;n14</title>
            <path fill="none" stroke="#000000"
                  d="M59.1759,-359.8314C65.6258,-351.5386 73.3892,-341.557 80.4699,-332.4533"/>
            <polygon fill="#000000" stroke="#000000"
                     points="83.3466,-334.4556 86.7233,-324.4133 77.8211,-330.158 83.3466,-334.4556"/>
        </g>
        <!-- n7 -->
        <g id="node13" class="node">
            <title>n7</title>
            <polygon fill="none" stroke="#000000"
                     points="234.0447,-174 192.0447,-174 192.0447,-150 234.0447,-150 246.0447,-162 234.0447,-174"/>
            <text text-anchor="middle" x="219.0447" y="-157.8" font-family="Times,serif" font-size="14.00"
                  fill="#000000">from
            </text>
        </g>
        <!-- n13&#45;&gt;n7 -->
        <g id="edge17" class="edge">
            <title>n13&#45;&gt;n7</title>
            <path fill="none" stroke="#000000"
                  d="M46.2389,-359.7731C48.1117,-340.8624 52.8929,-310.9062 65.0447,-288 91.3861,-238.3465 146.4549,-200.9108 183.0921,-180.2205"/>
            <polygon fill="#000000" stroke="#000000"
                     points="184.9108,-183.2147 191.9809,-175.3239 181.5332,-177.0834 184.9108,-183.2147"/>
        </g>
        <!-- n15 -->
        <g id="node2" class="node">
            <title>n15</title>
            <polygon fill="none" stroke="#000000"
                     points="263.0966,-252 174.9928,-252 174.9928,-216 263.0966,-216 263.0966,-252"/>
            <text text-anchor="middle" x="219.0447" y="-229.8" font-family="Times,serif" font-size="14.00"
                  fill="#000000">&lt;repository&gt;
            </text>
        </g>
        <!-- n15&#45;&gt;n7 -->
        <g id="edge1" class="edge">
            <title>n15&#45;&gt;n7</title>
            <path fill="none" stroke="#000000"
                  d="M219.0447,-215.8314C219.0447,-208.131 219.0447,-198.9743 219.0447,-190.4166"/>
            <polygon fill="#000000" stroke="#000000"
                     points="222.5448,-190.4132 219.0447,-180.4133 215.5448,-190.4133 222.5448,-190.4132"/>
        </g>
        <!-- n17 -->
        <g id="node3" class="node">
            <title>n17</title>
            <polygon fill="none" stroke="#000000"
                     points="289.0447,-390 247.0447,-390 247.0447,-366 289.0447,-366 301.0447,-378 289.0447,-390"/>
            <text text-anchor="middle" x="274.0447" y="-373.8" font-family="Times,serif" font-size="14.00"
                  fill="#000000">find
            </text>
        </g>
        <!-- n18 -->
        <g id="node10" class="node">
            <title>n18</title>
            <polygon fill="none" stroke="#000000"
                     points="243.0447,-318 201.0447,-318 201.0447,-294 243.0447,-294 255.0447,-306 243.0447,-318"/>
            <text text-anchor="middle" x="228.0447" y="-301.8" font-family="Times,serif" font-size="14.00"
                  fill="#000000">in
            </text>
        </g>
        <!-- n17&#45;&gt;n18 -->
        <g id="edge5" class="edge">
            <title>n17&#45;&gt;n18</title>
            <path fill="none" stroke="#000000"
                  d="M262.437,-359.8314C257.2469,-351.7079 251.0215,-341.9637 245.3022,-333.0118"/>
            <polygon fill="#000000" stroke="#000000"
                     points="248.1421,-330.9559 239.8087,-324.4133 242.2432,-334.7246 248.1421,-330.9559"/>
        </g>
        <!-- n17&#45;&gt;n7 -->
        <g id="edge6" class="edge">
            <title>n17&#45;&gt;n7</title>
            <path fill="none" stroke="#000000"
                  d="M278.0424,-359.8697C283.9573,-328.9623 292.2999,-264.6936 272.0447,-216 267.5183,-205.1184 259.6548,-195.2314 251.3493,-186.9785"/>
            <polygon fill="#000000" stroke="#000000"
                     points="253.7189,-184.4027 244.0095,-180.1627 248.9556,-189.5321 253.7189,-184.4027"/>
        </g>
        <!-- n14&#45;&gt;n15 -->
        <g id="edge24" class="edge">
            <title>n14&#45;&gt;n15</title>
            <path fill="none" stroke="#000000"
                  d="M128.1163,-289.4817C143.6448,-280.0067 163.396,-267.9552 180.5201,-257.5065"/>
            <polygon fill="#000000" stroke="#000000"
                     points="182.4859,-260.4072 189.1992,-252.2108 178.8398,-254.4317 182.4859,-260.4072"/>
        </g>
        <!-- n16 -->
        <g id="node5" class="node">
            <title>n16</title>
            <polygon fill="none" stroke="#000000"
                     points="152.0447,-462 110.0447,-462 110.0447,-438 152.0447,-438 164.0447,-450 152.0447,-462"/>
            <text text-anchor="middle" x="137.0447" y="-445.8" font-family="Times,serif" font-size="14.00"
                  fill="#000000">push
            </text>
        </g>
        <!-- n16&#45;&gt;n13 -->
        <g id="edge2" class="edge">
            <title>n16&#45;&gt;n13</title>
            <path fill="none" stroke="#000000"
                  d="M113.8292,-431.8314C102.4977,-422.9632 88.6983,-412.1637 76.442,-402.5718"/>
            <polygon fill="#000000" stroke="#000000"
                     points="78.2849,-399.5697 68.2528,-396.1628 73.9707,-405.0822 78.2849,-399.5697"/>
        </g>
        <!-- n16&#45;&gt;n14 -->
        <g id="edge3" class="edge">
            <title>n16&#45;&gt;n14</title>
            <path fill="none" stroke="#000000"
                  d="M132.4853,-431.7623C126.3179,-407.0928 115.2596,-362.8598 108.038,-333.9731"/>
            <polygon fill="#000000" stroke="#000000"
                     points="111.388,-332.9421 105.5671,-324.0896 104.597,-334.6399 111.388,-332.9421"/>
        </g>
        <!-- n16&#45;&gt;n7 -->
        <g id="edge4" class="edge">
            <title>n16&#45;&gt;n7</title>
            <path fill="none" stroke="#000000"
                  d="M135.4919,-431.8917C132.7749,-391.0802 130.4571,-289.7325 166.0447,-216 171.2117,-205.2946 179.3483,-195.4102 187.7093,-187.1041"/>
            <polygon fill="#000000" stroke="#000000"
                     points="190.1415,-189.6215 195.0457,-180.23 185.3553,-184.5134 190.1415,-189.6215"/>
        </g>
        <!-- n1 -->
        <g id="node6" class="node">
            <title>n1</title>
            <polygon fill="none" stroke="#000000"
                     points="356.0447,-540 302.0447,-540 302.0447,-504 356.0447,-504 356.0447,-540"/>
            <text text-anchor="middle" x="329.0447" y="-517.8" font-family="Times,serif" font-size="14.00"
                  fill="#000000">tuplip
            </text>
        </g>
        <!-- n1&#45;&gt;n17 -->
        <g id="edge13" class="edge">
            <title>n1&#45;&gt;n17</title>
            <path fill="none" stroke="#000000"
                  d="M322.0789,-503.7623C312.6152,-478.9846 295.6136,-434.4714 284.584,-405.5939"/>
            <polygon fill="#000000" stroke="#000000"
                     points="287.7917,-404.1826 280.9539,-396.0896 281.2524,-406.6803 287.7917,-404.1826"/>
        </g>
        <!-- n1&#45;&gt;n16 -->
        <g id="edge12" class="edge">
            <title>n1&#45;&gt;n16</title>
            <path fill="none" stroke="#000000"
                  d="M301.943,-511.8369C268.447,-499.2759 211.2987,-477.8452 173.8541,-463.8035"/>
            <polygon fill="#000000" stroke="#000000"
                     points="174.911,-460.4619 164.3187,-460.2278 172.453,-467.0162 174.911,-460.4619"/>
        </g>
        <!-- n2 -->
        <g id="node7" class="node">
            <title>n2</title>
            <polygon fill="none" stroke="#000000"
                     points="402.7555,-462 357.3339,-462 357.3339,-438 402.7555,-438 414.7555,-450 402.7555,-462"/>
            <text text-anchor="middle" x="386.0447" y="-445.8" font-family="Times,serif" font-size="14.00"
                  fill="#000000">version
            </text>
        </g>
        <!-- n1&#45;&gt;n2 -->
        <g id="edge7" class="edge">
            <title>n1&#45;&gt;n2</title>
            <path fill="none" stroke="#000000"
                  d="M343.4282,-503.8314C349.9933,-495.5386 357.8954,-485.557 365.1025,-476.4533"/>
            <polygon fill="#000000" stroke="#000000"
                     points="368.0046,-478.4262 371.4675,-468.4133 362.5163,-474.0813 368.0046,-478.4262"/>
        </g>
        <!-- n5 -->
        <g id="node11" class="node">
            <title>n5</title>
            <polygon fill="none" stroke="#000000"
                     points="547.0447,-462 505.0447,-462 505.0447,-438 547.0447,-438 559.0447,-450 547.0447,-462"/>
            <text text-anchor="middle" x="532.0447" y="-445.8" font-family="Times,serif" font-size="14.00"
                  fill="#000000">graph
            </text>
        </g>
        <!-- n1&#45;&gt;n5 -->
        <g id="edge9" class="edge">
            <title>n1&#45;&gt;n5</title>
            <path fill="none" stroke="#000000"
                  d="M356.1005,-514.6167C387.6786,-505.7065 441.5129,-489.6094 495.3797,-467.9989"/>
            <polygon fill="#000000" stroke="#000000"
                     points="496.7831,-471.2065 504.7245,-464.1932 494.1429,-464.7235 496.7831,-471.2065"/>
        </g>
        <!-- n6 -->
        <g id="node12" class="node">
            <title>n6</title>
            <polygon fill="none" stroke="#000000"
                     points="361.0447,-246 319.0447,-246 319.0447,-222 361.0447,-222 373.0447,-234 361.0447,-246"/>
            <text text-anchor="middle" x="346.0447" y="-229.8" font-family="Times,serif" font-size="14.00"
                  fill="#000000">build
            </text>
        </g>
        <!-- n1&#45;&gt;n6 -->
        <g id="edge10" class="edge">
            <title>n1&#45;&gt;n6</title>
            <path fill="none" stroke="#000000"
                  d="M330.1081,-503.9843C332.9822,-455.2939 340.9213,-320.7961 344.3885,-262.0573"/>
            <polygon fill="#000000" stroke="#000000"
                     points="347.8862,-262.1978 344.9817,-252.0089 340.8984,-261.7852 347.8862,-262.1978"/>
        </g>
        <!-- n3 -->
        <g id="node15" class="node">
            <title>n3</title>
            <polygon fill="none" stroke="#000000"
                     points="475.0447,-462 433.0447,-462 433.0447,-438 475.0447,-438 487.0447,-450 475.0447,-462"/>
            <text text-anchor="middle" x="460.0447" y="-445.8" font-family="Times,serif" font-size="14.00"
                  fill="#000000">help
            </text>
        </g>
        <!-- n1&#45;&gt;n3 -->
        <g id="edge8" class="edge">
            <title>n1&#45;&gt;n3</title>
            <path fill="none" stroke="#000000"
                  d="M356.188,-507.0816C375.8605,-496.2692 402.6604,-481.5395 424.1083,-469.7513"/>
            <polygon fill="#000000" stroke="#000000"
                     points="425.8584,-472.7833 432.9362,-464.8993 422.4868,-466.6488 425.8584,-472.7833"/>
        </g>
        <!-- n12 -->
        <g id="node18" class="node">
            <title>n12</title>
            <polygon fill="none" stroke="#000000"
                     points="80.0447,-462 38.0447,-462 38.0447,-438 80.0447,-438 92.0447,-450 80.0447,-462"/>
            <text text-anchor="middle" x="65.0447" y="-445.8" font-family="Times,serif" font-size="14.00"
                  fill="#000000">tag
            </text>
        </g>
        <!-- n1&#45;&gt;n12 -->
        <g id="edge11" class="edge">
            <title>n1&#45;&gt;n12</title>
            <path fill="none" stroke="#000000"
                  d="M301.7805,-517.6471C260.1858,-510.5612 178.4672,-494.8882 102.0465,-467.9485"/>
            <polygon fill="#000000" stroke="#000000"
                     points="102.8681,-464.5244 92.2737,-464.4298 100.4967,-471.1105 102.8681,-464.5244"/>
        </g>
        <!-- n4 -->
        <g id="node8" class="node">
            <title>n4</title>
            <ellipse fill="none" stroke="#000000" cx="496.0447" cy="-378" rx="76.1947" ry="18"/>
            <text text-anchor="middle" x="496.0447" y="-373.8" font-family="Times,serif" font-size="14.00"
                  fill="#000000">[&lt;command&gt; ...]
            </text>
        </g>
        <!-- n8 -->
        <g id="node9" class="node">
            <title>n8</title>
            <polygon fill="none" stroke="#000000"
                     points="162.0447,-102 120.0447,-102 120.0447,-78 162.0447,-78 174.0447,-90 162.0447,-102"/>
            <text text-anchor="middle" x="147.0447" y="-85.8" font-family="Times,serif" font-size="14.00"
                  fill="#000000">stdin
            </text>
        </g>
        <!-- n18&#45;&gt;n15 -->
        <g id="edge25" class="edge">
            <title>n18&#45;&gt;n15</title>
            <path fill="none" stroke="#000000"
                  d="M225.7736,-287.8314C224.8111,-280.131 223.6665,-270.9743 222.5968,-262.4166"/>
            <polygon fill="#000000" stroke="#000000"
                     points="226.0598,-261.9019 221.3464,-252.4133 219.1138,-262.7702 226.0598,-261.9019"/>
        </g>
        <!-- n5&#45;&gt;n4 -->
        <g id="edge15" class="edge">
            <title>n5&#45;&gt;n4</title>
            <path fill="none" stroke="#000000"
                  d="M522.9604,-431.8314C518.8791,-423.6688 513.9797,-413.87 509.4861,-404.8827"/>
            <polygon fill="#000000" stroke="#000000"
                     points="512.6041,-403.2924 505.0014,-395.9134 506.3431,-406.423 512.6041,-403.2924"/>
        </g>
        <!-- n6&#45;&gt;n7 -->
        <g id="edge19" class="edge">
            <title>n6&#45;&gt;n7</title>
            <path fill="none" stroke="#000000"
                  d="M318.8,-218.5542C300.2179,-208.0195 275.4067,-193.9532 255.1775,-182.4848"/>
            <polygon fill="#000000" stroke="#000000"
                     points="256.6697,-179.3074 246.2443,-177.4203 253.2174,-185.3969 256.6697,-179.3074"/>
        </g>
        <!-- n7&#45;&gt;n8 -->
        <g id="edge20" class="edge">
            <title>n7&#45;&gt;n8</title>
            <path fill="none" stroke="#000000"
                  d="M200.8761,-143.8314C192.3295,-135.2848 181.989,-124.9443 172.6645,-115.6198"/>
            <polygon fill="#000000" stroke="#000000"
                     points="175.0039,-113.0095 165.458,-108.4133 170.0542,-117.9592 175.0039,-113.0095"/>
        </g>
        <!-- n9 -->
        <g id="node14" class="node">
            <title>n9</title>
            <polygon fill="none" stroke="#000000"
                     points="234.0447,-102 192.0447,-102 192.0447,-78 234.0447,-78 246.0447,-90 234.0447,-102"/>
            <text text-anchor="middle" x="219.0447" y="-85.8" font-family="Times,serif" font-size="14.00"
                  fill="#000000">file
            </text>
        </g>
        <!-- n7&#45;&gt;n9 -->
        <g id="edge21" class="edge">
            <title>n7&#45;&gt;n9</title>
            <path fill="none" stroke="#000000"
                  d="M219.0447,-143.8314C219.0447,-136.131 219.0447,-126.9743 219.0447,-118.4166"/>
            <polygon fill="#000000" stroke="#000000"
                     points="222.5448,-118.4132 219.0447,-108.4133 215.5448,-118.4133 222.5448,-118.4132"/>
        </g>
        <!-- n11 -->
        <g id="node17" class="node">
            <title>n11</title>
            <polygon fill="none" stroke="#000000"
                     points="330.3147,-108 263.7747,-108 263.7747,-72 330.3147,-72 330.3147,-108"/>
            <text text-anchor="middle" x="297.0447" y="-85.8" font-family="Times,serif" font-size="14.00"
                  fill="#000000">&lt;param&gt;
            </text>
        </g>
        <!-- n7&#45;&gt;n11 -->
        <g id="edge22" class="edge">
            <title>n7&#45;&gt;n11</title>
            <path fill="none" stroke="#000000"
                  d="M238.7274,-143.8314C248.1498,-135.1337 259.5848,-124.5783 269.8243,-115.1265"/>
            <polygon fill="#000000" stroke="#000000"
                     points="272.3942,-117.5175 277.3683,-108.1628 267.6463,-112.3738 272.3942,-117.5175"/>
        </g>
        <!-- n10 -->
        <g id="node16" class="node">
            <title>n10</title>
            <ellipse fill="none" stroke="#000000" cx="219.0447" cy="-18" rx="34.5941" ry="18"/>
            <text text-anchor="middle" x="219.0447" y="-13.8" font-family="Times,serif" font-size="14.00"
                  fill="#000000">&lt;file&gt;
            </text>
        </g>
        <!-- n9&#45;&gt;n10 -->
        <g id="edge23" class="edge">
            <title>n9&#45;&gt;n10</title>
            <path fill="none" stroke="#000000"
                  d="M219.0447,-71.8314C219.0447,-64.131 219.0447,-54.9743 219.0447,-46.4166"/>
            <polygon fill="#000000" stroke="#000000"
                     points="222.5448,-46.4132 219.0447,-36.4133 215.5448,-46.4133 222.5448,-46.4132"/>
        </g>
        <!-- n3&#45;&gt;n4 -->
        <g id="edge14" class="edge">
            <title>n3&#45;&gt;n4</title>
            <path fill="none" stroke="#000000"
                  d="M469.129,-431.8314C473.2103,-423.6688 478.1097,-413.87 482.6033,-404.8827"/>
            <polygon fill="#000000" stroke="#000000"
                     points="485.7463,-406.423 487.088,-395.9134 479.4853,-403.2924 485.7463,-406.423"/>
        </g>
        <!-- n12&#45;&gt;n13 -->
        <g id="edge16" class="edge">
            <title>n12&#45;&gt;n13</title>
            <path fill="none" stroke="#000000"
                  d="M59.9979,-431.8314C57.8353,-424.0463 55.2594,-414.7729 52.8599,-406.1347"/>
            <polygon fill="#000000" stroke="#000000"
                     points="56.2083,-405.1117 50.1595,-396.4133 49.4637,-406.9852 56.2083,-405.1117"/>
        </g>
    </g>
</svg>
