<?xml version="1.0" encoding="UTF-8" standalone="no"?>
<!DOCTYPE svg PUBLIC "-//W3C//DTD SVG 1.1//EN"
        "http://www.w3.org/Graphics/SVG/1.1/DTD/svg11.dtd">
<!-- Generated by graphviz version 2.40.1 (20161225.0304)
 -->
<!-- Title: %0 Pages: 1 -->
<svg width="526pt" height="548pt"
     viewBox="0.00 0.00 525.85 548.00" xmlns="http://www.w3.org/2000/svg">
    <g id="graph0" class="graph" transform="scale(1 1) rotate(0) translate(4 544)">
        <title>%0</title>
        <polygon fill="#ffffff" stroke="transparent" points="-4,4 -4,-544 521.8487,-544 521.8487,4 -4,4"/>
        <!-- n12 -->
        <g id="node1" class="node">
            <title>n12</title>
            <ellipse fill="none" stroke="#000000" cx="59.2435" cy="-18" rx="34.5941" ry="18"/>
            <text text-anchor="middle" x="59.2435" y="-13.8" font-family="Times,serif" font-size="14.00" fill="#000000">
                &lt;file&gt;
            </text>
        </g>
        <!-- n13 -->
        <g id="node2" class="node">
            <title>n13</title>
            <polygon fill="none" stroke="#000000"
                     points="170.5135,-108 103.9735,-108 103.9735,-72 170.5135,-72 170.5135,-108"/>
            <text text-anchor="middle" x="137.2435" y="-85.8" font-family="Times,serif" font-size="14.00"
                  fill="#000000">&lt;param&gt;
            </text>
        </g>
        <!-- n8 -->
        <g id="node3" class="node">
            <title>n8</title>
            <polygon fill="none" stroke="#000000"
                     points="109.2954,-252 21.1915,-252 21.1915,-216 109.2954,-216 109.2954,-252"/>
            <text text-anchor="middle" x="65.2435" y="-229.8" font-family="Times,serif" font-size="14.00"
                  fill="#000000">&lt;repository&gt;
            </text>
        </g>
        <!-- n9 -->
        <g id="node9" class="node">
            <title>n9</title>
            <polygon fill="none" stroke="#000000"
                     points="152.2435,-174 110.2435,-174 110.2435,-150 152.2435,-150 164.2435,-162 152.2435,-174"/>
            <text text-anchor="middle" x="137.2435" y="-157.8" font-family="Times,serif" font-size="14.00"
                  fill="#000000">from
            </text>
        </g>
        <!-- n8&#45;&gt;n9 -->
        <g id="edge1" class="edge">
            <title>n8&#45;&gt;n9</title>
            <path fill="none" stroke="#000000"
                  d="M83.4121,-215.8314C91.9587,-207.2848 102.2992,-196.9443 111.6236,-187.6198"/>
            <polygon fill="#000000" stroke="#000000"
                     points="114.234,-189.9592 118.8302,-180.4133 109.2842,-185.0095 114.234,-189.9592"/>
        </g>
        <!-- n15 -->
        <g id="node4" class="node">
            <title>n15</title>
            <polygon fill="none" stroke="#000000"
                     points="181.3329,-396 91.154,-396 91.154,-360 181.3329,-360 181.3329,-396"/>
            <text text-anchor="middle" x="136.2435" y="-373.8" font-family="Times,serif" font-size="14.00"
                  fill="#000000">&lt;source&#45;tag&gt;
            </text>
        </g>
        <!-- n15&#45;&gt;n9 -->
        <g id="edge2" class="edge">
            <title>n15&#45;&gt;n9</title>
            <path fill="none" stroke="#000000"
                  d="M136.327,-359.9555C136.5009,-322.3938 136.903,-235.5541 137.112,-190.4103"/>
            <polygon fill="#000000" stroke="#000000"
                     points="140.613,-190.1612 137.1595,-180.1451 133.6131,-190.1287 140.613,-190.1612"/>
        </g>
        <!-- n7 -->
        <g id="node16" class="node">
            <title>n7</title>
            <polygon fill="none" stroke="#000000"
                     points="207.2435,-318 165.2435,-318 165.2435,-294 207.2435,-294 219.2435,-306 207.2435,-318"/>
            <text text-anchor="middle" x="192.2435" y="-301.8" font-family="Times,serif" font-size="14.00"
                  fill="#000000">to
            </text>
        </g>
        <!-- n15&#45;&gt;n7 -->
        <g id="edge3" class="edge">
            <title>n15&#45;&gt;n7</title>
            <path fill="none" stroke="#000000"
                  d="M150.3746,-359.8314C156.8246,-351.5386 164.588,-341.557 171.6687,-332.4533"/>
            <polygon fill="#000000" stroke="#000000"
                     points="174.5453,-334.4556 177.9221,-324.4133 169.0199,-330.158 174.5453,-334.4556"/>
        </g>
        <!-- n4 -->
        <g id="node5" class="node">
            <title>n4</title>
            <ellipse fill="none" stroke="#000000" cx="423.2435" cy="-378" rx="76.1947" ry="18"/>
            <text text-anchor="middle" x="423.2435" y="-373.8" font-family="Times,serif" font-size="14.00"
                  fill="#000000">[&lt;command&gt; ...]
            </text>
        </g>
        <!-- n6 -->
        <g id="node6" class="node">
            <title>n6</title>
            <polygon fill="none" stroke="#000000"
                     points="317.2435,-390 275.2435,-390 275.2435,-366 317.2435,-366 329.2435,-378 317.2435,-390"/>
            <text text-anchor="middle" x="302.2435" y="-373.8" font-family="Times,serif" font-size="14.00"
                  fill="#000000">build
            </text>
        </g>
        <!-- n6&#45;&gt;n9 -->
        <g id="edge5" class="edge">
            <title>n6&#45;&gt;n9</title>
            <path fill="none" stroke="#000000"
                  d="M302.5903,-359.8851C302.2524,-327.2648 297.0157,-258.1288 261.2435,-216 239.1127,-189.9366 202.0381,-176.052 174.1807,-168.924"/>
            <polygon fill="#000000" stroke="#000000"
                     points="174.9177,-165.5017 164.3793,-166.5936 173.2984,-172.3119 174.9177,-165.5017"/>
        </g>
        <!-- n6&#45;&gt;n7 -->
        <g id="edge4" class="edge">
            <title>n6&#45;&gt;n7</title>
            <path fill="none" stroke="#000000"
                  d="M275.0525,-360.2022C260.9057,-350.9425 243.4278,-339.5025 228.1805,-329.5224"/>
            <polygon fill="#000000" stroke="#000000"
                     points="229.7868,-326.3907 219.5029,-323.8425 225.9531,-332.2476 229.7868,-326.3907"/>
        </g>
        <!-- n11 -->
        <g id="node7" class="node">
            <title>n11</title>
            <polygon fill="none" stroke="#000000"
                     points="74.2435,-102 32.2435,-102 32.2435,-78 74.2435,-78 86.2435,-90 74.2435,-102"/>
            <text text-anchor="middle" x="59.2435" y="-85.8" font-family="Times,serif" font-size="14.00" fill="#000000">
                file
            </text>
        </g>
        <!-- n11&#45;&gt;n12 -->
        <g id="edge6" class="edge">
            <title>n11&#45;&gt;n12</title>
            <path fill="none" stroke="#000000" d="M59.2435,-71.8314C59.2435,-64.131 59.2435,-54.9743 59.2435,-46.4166"/>
            <polygon fill="#000000" stroke="#000000"
                     points="62.7436,-46.4132 59.2435,-36.4133 55.7436,-46.4133 62.7436,-46.4132"/>
        </g>
        <!-- n17 -->
        <g id="node8" class="node">
            <title>n17</title>
            <polygon fill="none" stroke="#000000"
                     points="61.2435,-390 19.2435,-390 19.2435,-366 61.2435,-366 73.2435,-378 61.2435,-390"/>
            <text text-anchor="middle" x="46.2435" y="-373.8" font-family="Times,serif" font-size="14.00"
                  fill="#000000">find
            </text>
        </g>
        <!-- n17&#45;&gt;n9 -->
        <g id="edge8" class="edge">
            <title>n17&#45;&gt;n9</title>
            <path fill="none" stroke="#000000"
                  d="M34.3453,-359.8455C15.1593,-328.0569 -17.5905,-261.3871 12.2435,-216 31.5832,-186.5781 70.7301,-173.113 100.0905,-166.9964"/>
            <polygon fill="#000000" stroke="#000000"
                     points="100.8402,-170.4168 110.019,-165.1253 99.5437,-163.5379 100.8402,-170.4168"/>
        </g>
        <!-- n18 -->
        <g id="node12" class="node">
            <title>n18</title>
            <polygon fill="none" stroke="#000000"
                     points="72.2435,-318 30.2435,-318 30.2435,-294 72.2435,-294 84.2435,-306 72.2435,-318"/>
            <text text-anchor="middle" x="57.2435" y="-301.8" font-family="Times,serif" font-size="14.00"
                  fill="#000000">in
            </text>
        </g>
        <!-- n17&#45;&gt;n18 -->
        <g id="edge7" class="edge">
            <title>n17&#45;&gt;n18</title>
            <path fill="none" stroke="#000000"
                  d="M49.0192,-359.8314C50.1957,-352.131 51.5946,-342.9743 52.9021,-334.4166"/>
            <polygon fill="#000000" stroke="#000000"
                     points="56.3799,-334.8272 54.4303,-324.4133 49.4602,-333.7699 56.3799,-334.8272"/>
        </g>
        <!-- n9&#45;&gt;n13 -->
        <g id="edge11" class="edge">
            <title>n9&#45;&gt;n13</title>
            <path fill="none" stroke="#000000"
                  d="M137.2435,-143.8314C137.2435,-136.131 137.2435,-126.9743 137.2435,-118.4166"/>
            <polygon fill="#000000" stroke="#000000"
                     points="140.7436,-118.4132 137.2435,-108.4133 133.7436,-118.4133 140.7436,-118.4132"/>
        </g>
        <!-- n9&#45;&gt;n11 -->
        <g id="edge10" class="edge">
            <title>n9&#45;&gt;n11</title>
            <path fill="none" stroke="#000000"
                  d="M117.5608,-143.8314C108.1384,-135.1337 96.7034,-124.5783 86.4639,-115.1265"/>
            <polygon fill="#000000" stroke="#000000"
                     points="88.6419,-112.3738 78.9199,-108.1628 83.8939,-117.5175 88.6419,-112.3738"/>
        </g>
        <!-- n10 -->
        <g id="node14" class="node">
            <title>n10</title>
            <polygon fill="none" stroke="#000000"
                     points="230.2435,-102 188.2435,-102 188.2435,-78 230.2435,-78 242.2435,-90 230.2435,-102"/>
            <text text-anchor="middle" x="215.2435" y="-85.8" font-family="Times,serif" font-size="14.00"
                  fill="#000000">stdin
            </text>
        </g>
        <!-- n9&#45;&gt;n10 -->
        <g id="edge9" class="edge">
            <title>n9&#45;&gt;n10</title>
            <path fill="none" stroke="#000000"
                  d="M156.9262,-143.8314C166.3486,-135.1337 177.7836,-124.5783 188.0231,-115.1265"/>
            <polygon fill="#000000" stroke="#000000"
                     points="190.593,-117.5175 195.5671,-108.1628 185.845,-112.3738 190.593,-117.5175"/>
        </g>
        <!-- n5 -->
        <g id="node10" class="node">
            <title>n5</title>
            <polygon fill="none" stroke="#000000"
                     points="430.2435,-462 388.2435,-462 388.2435,-438 430.2435,-438 442.2435,-450 430.2435,-462"/>
            <text text-anchor="middle" x="415.2435" y="-445.8" font-family="Times,serif" font-size="14.00"
                  fill="#000000">graph
            </text>
        </g>
        <!-- n5&#45;&gt;n4 -->
        <g id="edge12" class="edge">
            <title>n5&#45;&gt;n4</title>
            <path fill="none" stroke="#000000"
                  d="M417.2622,-431.8314C418.1178,-424.131 419.1352,-414.9743 420.0861,-406.4166"/>
            <polygon fill="#000000" stroke="#000000"
                     points="423.5718,-406.7386 421.1976,-396.4133 416.6146,-405.9656 423.5718,-406.7386"/>
        </g>
        <!-- n3 -->
        <g id="node11" class="node">
            <title>n3</title>
            <polygon fill="none" stroke="#000000"
                     points="358.2435,-462 316.2435,-462 316.2435,-438 358.2435,-438 370.2435,-450 358.2435,-462"/>
            <text text-anchor="middle" x="343.2435" y="-445.8" font-family="Times,serif" font-size="14.00"
                  fill="#000000">help
            </text>
        </g>
        <!-- n3&#45;&gt;n4 -->
        <g id="edge13" class="edge">
            <title>n3&#45;&gt;n4</title>
            <path fill="none" stroke="#000000"
                  d="M363.4309,-431.8314C373.4131,-422.8473 385.5977,-411.8812 396.3585,-402.1965"/>
            <polygon fill="#000000" stroke="#000000"
                     points="398.7989,-404.7089 403.8905,-395.4177 394.1161,-399.5059 398.7989,-404.7089"/>
        </g>
        <!-- n18&#45;&gt;n8 -->
        <g id="edge14" class="edge">
            <title>n18&#45;&gt;n8</title>
            <path fill="none" stroke="#000000"
                  d="M59.2622,-287.8314C60.1178,-280.131 61.1352,-270.9743 62.0861,-262.4166"/>
            <polygon fill="#000000" stroke="#000000"
                     points="65.5718,-262.7386 63.1976,-252.4133 58.6146,-261.9656 65.5718,-262.7386"/>
        </g>
        <!-- n16 -->
        <g id="node13" class="node">
            <title>n16</title>
            <polygon fill="none" stroke="#000000"
                     points="232.2435,-462 190.2435,-462 190.2435,-438 232.2435,-438 244.2435,-450 232.2435,-462"/>
            <text text-anchor="middle" x="217.2435" y="-445.8" font-family="Times,serif" font-size="14.00"
                  fill="#000000">push
            </text>
        </g>
        <!-- n16&#45;&gt;n15 -->
        <g id="edge15" class="edge">
            <title>n16&#45;&gt;n15</title>
            <path fill="none" stroke="#000000"
                  d="M196.8038,-431.8314C186.923,-423.0485 174.9111,-412.3712 164.1984,-402.8489"/>
            <polygon fill="#000000" stroke="#000000"
                     points="166.4761,-400.1906 156.6767,-396.1628 161.8255,-405.4224 166.4761,-400.1906"/>
        </g>
        <!-- n16&#45;&gt;n9 -->
        <g id="edge17" class="edge">
            <title>n16&#45;&gt;n9</title>
            <path fill="none" stroke="#000000"
                  d="M222.7448,-431.9691C231.117,-401.4789 244.4622,-338.1578 228.2435,-288 215.5635,-248.786 185.6219,-211.5134 163.5294,-187.8241"/>
            <polygon fill="#000000" stroke="#000000"
                     points="165.8108,-185.145 156.3744,-180.3278 160.7471,-189.9782 165.8108,-185.145"/>
        </g>
        <!-- n16&#45;&gt;n7 -->
        <g id="edge16" class="edge">
            <title>n16&#45;&gt;n7</title>
            <path fill="none" stroke="#000000"
                  d="M214.0772,-431.7623C209.7943,-407.0928 202.115,-362.8598 197.0999,-333.9731"/>
            <polygon fill="#000000" stroke="#000000"
                     points="200.5431,-333.3435 195.384,-324.0896 193.6462,-334.541 200.5431,-333.3435"/>
        </g>
        <!-- n14 -->
        <g id="node15" class="node">
            <title>n14</title>
            <polygon fill="none" stroke="#000000"
                     points="155.2435,-462 113.2435,-462 113.2435,-438 155.2435,-438 167.2435,-450 155.2435,-462"/>
            <text text-anchor="middle" x="140.2435" y="-445.8" font-family="Times,serif" font-size="14.00"
                  fill="#000000">tag
            </text>
        </g>
        <!-- n14&#45;&gt;n15 -->
        <g id="edge18" class="edge">
            <title>n14&#45;&gt;n15</title>
            <path fill="none" stroke="#000000"
                  d="M139.2341,-431.8314C138.8063,-424.131 138.2976,-414.9743 137.8222,-406.4166"/>
            <polygon fill="#000000" stroke="#000000"
                     points="141.3158,-406.2037 137.2664,-396.4133 134.3266,-406.592 141.3158,-406.2037"/>
        </g>
        <!-- n7&#45;&gt;n8 -->
        <g id="edge19" class="edge">
            <title>n7&#45;&gt;n8</title>
            <path fill="none" stroke="#000000"
                  d="M164.9988,-290.5542C147.8846,-280.8517 125.4866,-268.1536 106.2509,-257.2483"/>
            <polygon fill="#000000" stroke="#000000"
                     points="107.8087,-254.1081 97.3833,-252.221 104.3564,-260.1976 107.8087,-254.1081"/>
        </g>
        <!-- n1 -->
        <g id="node17" class="node">
            <title>n1</title>
            <polygon fill="none" stroke="#000000"
                     points="315.2435,-540 261.2435,-540 261.2435,-504 315.2435,-504 315.2435,-540"/>
            <text text-anchor="middle" x="288.2435" y="-517.8" font-family="Times,serif" font-size="14.00"
                  fill="#000000">tuplip
            </text>
        </g>
        <!-- n1&#45;&gt;n6 -->
        <g id="edge23" class="edge">
            <title>n1&#45;&gt;n6</title>
            <path fill="none" stroke="#000000"
                  d="M290.0166,-503.7623C292.4045,-479.201 296.6778,-435.2474 299.4868,-406.3541"/>
            <polygon fill="#000000" stroke="#000000"
                     points="303.0006,-406.3814 300.4848,-396.0896 296.0334,-405.704 303.0006,-406.3814"/>
        </g>
        <!-- n1&#45;&gt;n17 -->
        <g id="edge26" class="edge">
            <title>n1&#45;&gt;n17</title>
            <path fill="none" stroke="#000000"
                  d="M260.9506,-519.9318C222.5193,-515.7958 151.8411,-503.5792 104.2435,-468 82.8759,-452.0277 67.2377,-425.6785 57.6204,-405.6069"/>
            <polygon fill="#000000" stroke="#000000"
                     points="60.7221,-403.9732 53.3841,-396.3309 54.3546,-406.8812 60.7221,-403.9732"/>
        </g>
        <!-- n1&#45;&gt;n5 -->
        <g id="edge22" class="edge">
            <title>n1&#45;&gt;n5</title>
            <path fill="none" stroke="#000000"
                  d="M315.4882,-506.5542C334.0703,-496.0195 358.8815,-481.9532 379.1107,-470.4848"/>
            <polygon fill="#000000" stroke="#000000"
                     points="381.0708,-473.3969 388.0439,-465.4203 377.6184,-467.3074 381.0708,-473.3969"/>
        </g>
        <!-- n1&#45;&gt;n3 -->
        <g id="edge21" class="edge">
            <title>n1&#45;&gt;n3</title>
            <path fill="none" stroke="#000000"
                  d="M302.1223,-503.8314C308.457,-495.5386 316.0819,-485.557 323.0361,-476.4533"/>
            <polygon fill="#000000" stroke="#000000"
                     points="325.8887,-478.4847 329.1778,-468.4133 320.326,-474.2353 325.8887,-478.4847"/>
        </g>
        <!-- n1&#45;&gt;n16 -->
        <g id="edge25" class="edge">
            <title>n1&#45;&gt;n16</title>
            <path fill="none" stroke="#000000"
                  d="M270.3272,-503.8314C261.8993,-495.2848 251.7025,-484.9443 242.5075,-475.6198"/>
            <polygon fill="#000000" stroke="#000000"
                     points="244.9146,-473.0761 235.401,-468.4133 239.9304,-477.9912 244.9146,-473.0761"/>
        </g>
        <!-- n1&#45;&gt;n14 -->
        <g id="edge24" class="edge">
            <title>n1&#45;&gt;n14</title>
            <path fill="none" stroke="#000000"
                  d="M261.098,-508.7941C237.3891,-497.26 202.7794,-480.4229 176.667,-467.7196"/>
            <polygon fill="#000000" stroke="#000000"
                     points="177.9906,-464.4713 167.4671,-463.2439 174.9283,-470.7659 177.9906,-464.4713"/>
        </g>
        <!-- n2 -->
        <g id="node18" class="node">
            <title>n2</title>
            <polygon fill="none" stroke="#000000"
                     points="505.9543,-462 460.5327,-462 460.5327,-438 505.9543,-438 517.9543,-450 505.9543,-462"/>
            <text text-anchor="middle" x="489.2435" y="-445.8" font-family="Times,serif" font-size="14.00"
                  fill="#000000">version
            </text>
        </g>
        <!-- n1&#45;&gt;n2 -->
        <g id="edge20" class="edge">
            <title>n1&#45;&gt;n2</title>
            <path fill="none" stroke="#000000"
                  d="M315.4315,-514.1086C346.2396,-504.9264 398.0432,-488.7623 450.8424,-467.9315"/>
            <polygon fill="#000000" stroke="#000000"
                     points="452.3715,-471.0897 460.3593,-464.1294 449.7744,-464.5893 452.3715,-471.0897"/>
        </g>
    </g>
</svg>
